<svg xmlns="http://www.w3.org/2000/svg" version="1.1" xmlns:xlink="http://www.w3.org/1999/xlink" xmlns:svgjs="http://svgjs.dev/svgjs" viewBox="0 0 800 800" opacity="1"><defs><linearGradient x1="50%" y1="0%" x2="50%" y2="100%" id="cccoil-grad"><stop stop-color="hsl(0, 0%, 0%)" stop-opacity="1" offset="0%"></stop><stop stop-color="#CBD5E1" stop-opacity="1" offset="100%"></stop></linearGradient></defs><g stroke="url(#cccoil-grad)" fill="none" stroke-linecap="round"><circle r="208" cx="400" cy="400" stroke-width="2.5" stroke-dasharray="1032 1307" transform="rotate(360, 400, 400)" opacity="1.00"></circle><circle r="200" cx="400" cy="400" stroke-width="2.5" stroke-dasharray="953 1257" transform="rotate(346, 400, 400)" opacity="0.96"></circle><circle r="192" cx="400" cy="400" stroke-width="2.5" stroke-dasharray="877 1206" transform="rotate(331, 400, 400)" opacity="0.92"></circle><circle r="184" cx="400" cy="400" stroke-width="2.5" stroke-dasharray="804 1156" transform="rotate(317, 400, 400)" opacity="0.89"></circle><circle r="176" cx="400" cy="400" stroke-width="2.5" stroke-dasharray="734 1106" transform="rotate(302, 400, 400)" opacity="0.85"></circle><circle r="168" cx="400" cy="400" stroke-width="2.5" stroke-dasharray="667 1056" transform="rotate(288, 400, 400)" opacity="0.81"></circle><circle r="160" cx="400" cy="400" stroke-width="2.5" stroke-dasharray="604 1005" transform="rotate(274, 400, 400)" opacity="0.77"></circle><circle r="152" cx="400" cy="400" stroke-width="2.5" stroke-dasharray="543 955" transform="rotate(259, 400, 400)" opacity="0.73"></circle><circle r="144" cx="400" cy="400" stroke-width="2.5" stroke-dasharray="486 905" transform="rotate(245, 400, 400)" opacity="0.70"></circle><circle r="136" cx="400" cy="400" stroke-width="2.5" stroke-dasharray="432 855" transform="rotate(230, 400, 400)" opacity="0.66"></circle><circle r="128" cx="400" cy="400" stroke-width="2.5" stroke-dasharray="381 804" transform="rotate(216, 400, 400)" opacity="0.62"></circle><circle r="120" cx="400" cy="400" stroke-width="2.5" stroke-dasharray="334 754" transform="rotate(202, 400, 400)" opacity="0.58"></circle><circle r="112" cx="400" cy="400" stroke-width="2.5" stroke-dasharray="289 704" transform="rotate(187, 400, 400)" opacity="0.54"></circle><circle r="104" cx="400" cy="400" stroke-width="2.5" stroke-dasharray="248 653" transform="rotate(173, 400, 400)" opacity="0.51"></circle><circle r="96" cx="400" cy="400" stroke-width="2.5" stroke-dasharray="210 603" transform="rotate(158, 400, 400)" opacity="0.47"></circle><circle r="88" cx="400" cy="400" stroke-width="2.5" stroke-dasharray="175 553" transform="rotate(144, 400, 400)" opacity="0.43"></circle><circle r="80" cx="400" cy="400" stroke-width="2.5" stroke-dasharray="143 503" transform="rotate(130, 400, 400)" opacity="0.39"></circle><circle r="72" cx="400" cy="400" stroke-width="2.5" stroke-dasharray="114 452" transform="rotate(115, 400, 400)" opacity="0.35"></circle><circle r="64" cx="400" cy="400" stroke-width="2.5" stroke-dasharray="89 402" transform="rotate(101, 400, 400)" opacity="0.32"></circle><circle r="56" cx="400" cy="400" stroke-width="2.5" stroke-dasharray="67 352" transform="rotate(86, 400, 400)" opacity="0.28"></circle><circle r="48" cx="400" cy="400" stroke-width="2.5" stroke-dasharray="48 302" transform="rotate(72, 400, 400)" opacity="0.24"></circle><circle r="40" cx="400" cy="400" stroke-width="2.5" stroke-dasharray="32 251" transform="rotate(58, 400, 400)" opacity="0.20"></circle><circle r="32" cx="400" cy="400" stroke-width="2.5" stroke-dasharray="19 201" transform="rotate(43, 400, 400)" opacity="0.16"></circle><circle r="24" cx="400" cy="400" stroke-width="2.5" stroke-dasharray="10 151" transform="rotate(29, 400, 400)" opacity="0.13"></circle><circle r="16" cx="400" cy="400" stroke-width="2.5" stroke-dasharray="3 101" transform="rotate(14, 400, 400)" opacity="0.09"></circle><circle r="8" cx="400" cy="400" stroke-width="2.5" stroke-dasharray="0 50" opacity="0.05"></circle></g></svg>